<?xml version="1.0" encoding="UTF-8"?>
<svg version="1.1" xmlns="http://www.w3.org/2000/svg" width="1280" height="1280">
<path d="M0 0 C422.4 0 844.8 0 1280 0 C1280 422.4 1280 844.8 1280 1280 C857.6 1280 435.2 1280 0 1280 C0 857.6 0 435.2 0 0 Z " fill="#000000" transform="translate(0,0)"/>
<path d="M0 0 C0.33 0 0.66 0 1 0 C5.12345151 32.09451428 9.16265559 64.19917064 13.16796875 96.30859375 C13.40370857 98.19825867 13.40370857 98.19825867 13.64421082 100.12609863 C14.36581506 105.91141112 15.08676564 111.69680286 15.8059082 117.48242188 C17.31450058 129.60662295 18.86016868 141.72537461 20.4475708 153.83950806 C20.82826909 156.74536488 21.20793693 159.65135498 21.58740234 162.55737305 C22.7848122 171.72469769 23.98533249 180.89160919 25.18988037 190.05799866 C27.75164946 209.55764668 30.30710246 229.0561086 32.61962891 248.5871582 C33.71766831 257.83437237 34.91266518 267.06699868 36.12329102 276.30004883 C37.79532382 289.0577565 39.43601131 301.81956416 41.07953262 314.58097076 C41.27800021 316.12188691 41.47652553 317.66279561 41.67510605 319.2036972 C44.22512293 338.99115941 46.73553915 358.78158289 49.10784912 378.59127808 C50.41379731 389.47752263 51.8730569 400.32833888 53.47949219 411.17504883 C55.30311209 423.69729998 56.73582194 436.26586612 58.21044922 448.83300781 C58.42020476 450.62044771 58.63000218 452.4078827 58.83984375 454.1953125 C58.94119629 455.05882324 59.04254883 455.92233398 59.14697266 456.81201172 C59.92801274 463.44317006 60.75121126 470.06787041 61.625 476.6875 C61.79588135 477.98361206 61.79588135 477.98361206 61.97021484 479.3059082 C62.44561529 482.8878756 62.92779415 486.4688745 63.41455078 490.04931641 C63.70244847 492.16911327 63.9885918 494.28914916 64.27294922 496.40942383 C64.5400461 498.40069555 64.81091412 500.39146689 65.08642578 502.3815918 C65.20614746 503.276604 65.32586914 504.17161621 65.44921875 505.09375 C65.55580811 505.87427734 65.66239746 506.65480469 65.7722168 507.45898438 C66.05625285 510.62752375 66 513.81875523 66 517 C22.77 517 -20.46 517 -65 517 C-65 509.34607209 -64.92091606 503.70111387 -63.58837891 496.48388672 C-62.87213823 492.24290974 -62.36887796 487.99566089 -61.88671875 483.72265625 C-61.79109146 482.87882385 -61.69546417 482.03499146 -61.59693909 481.16558838 C-61.3965861 479.38853736 -61.19704804 477.6113943 -60.9982605 475.83416748 C-59.31523395 460.82328295 -57.50420514 445.83792919 -55.4375 430.875 C-53.85702636 419.42711736 -52.3599105 407.97624647 -51 396.5 C-49.63719881 385.00350025 -48.14154691 373.53123914 -46.5625 362.0625 C-44.60434305 347.83503093 -42.85346793 333.59066489 -41.18777466 319.32620239 C-39.66212808 306.28424067 -37.99070516 293.27067918 -36.19052124 280.26394653 C-34.16035888 265.56748025 -32.3927998 250.84427504 -30.69921875 236.10546875 C-29.80367828 228.36387317 -28.83268736 220.68098774 -27.48461914 213.00268555 C-26.56773314 207.32168757 -25.95958049 201.59882698 -25.31152344 195.88204956 C-24.8826834 192.10284415 -24.44329984 188.32486575 -24.00390625 184.546875 C-23.91730743 183.80114731 -23.83070862 183.05541962 -23.7414856 182.28709412 C-22.94324288 175.44630879 -22.05794328 168.6186019 -21.14697266 161.79199219 C-19.82289725 151.80335315 -18.63312269 141.79832606 -17.4453125 131.79272461 C-16.5718382 124.47125275 -15.61247907 117.16837067 -14.55151367 109.87133789 C-13.35994514 101.50714925 -12.28162469 93.12739073 -11.1875 84.75 C-10.99249405 83.26131409 -10.99249405 83.26131409 -10.79354858 81.74255371 C-9.33556076 70.5958116 -7.91412294 59.4461314 -6.6015625 48.28125 C-6.49143326 47.3450885 -6.38130402 46.408927 -6.26783752 45.44439697 C-5.74976636 41.02466353 -5.2386647 36.60424891 -4.73706055 32.18261719 C-3.49714474 21.38875097 -1.8866295 10.69971278 0 0 Z " fill="#FDFDFD" transform="translate(640,573)"/>
<path d="M0 0 C2.8313715 2.8313715 3.54712218 6.25124035 4.734375 9.984375 C5.27074858 11.63240111 5.8078795 13.2801809 6.34570312 14.92773438 C6.62003174 15.77263428 6.89436035 16.61753418 7.17700195 17.48803711 C8.44014979 21.34342962 9.75708453 25.17975847 11.078125 29.015625 C11.59939602 30.5338436 12.12063588 32.05207289 12.6418457 33.5703125 C12.90422028 34.33375977 13.16659485 35.09720703 13.43692017 35.88378906 C17.79538779 48.56772651 22.10309574 61.26582779 26.3125 74 C29.06527275 82.31943035 31.89582026 90.59424899 34.9375 98.8125 C38.71328196 109.0187614 42.16077971 119.32586627 45.55541992 129.66357422 C48.15093725 137.550174 50.83453009 145.39632153 53.62890625 153.21484375 C54.53888369 155.78474989 55.44734685 158.35518656 56.3553772 160.92578125 C56.94581341 162.58347396 57.54331379 164.23866965 58.14828491 165.89111328 C64.32720395 182.77985726 64.32720395 182.77985726 62 191 C61.76667969 191.82540283 61.53335938 192.65080566 61.29296875 193.5012207 C60.39987791 196.34689954 59.40128403 199.13713591 58.375 201.9375 C57.55561611 204.24075259 56.73663631 206.54414895 55.91796875 208.84765625 C55.4538194 210.14216377 54.98945525 211.43659428 54.52490234 212.73095703 C51.52983833 221.09485224 48.61567089 229.48751805 45.6875 237.875 C45.20313477 239.26045013 45.20313477 239.26045013 44.70898438 240.67388916 C39.82664834 254.64357021 35.07256483 268.65051376 30.4230957 282.69921875 C26.54351063 294.41561619 22.56257926 306.09545795 18.55300903 317.76794434 C14.31888599 330.09733496 10.15560709 342.44827651 6.06982422 354.82763672 C5.50352295 356.53910889 5.50352295 356.53910889 4.92578125 358.28515625 C4.60005127 359.27394775 4.27432129 360.26273926 3.9387207 361.28149414 C3.03748916 363.89143257 2.04840283 366.44606394 1 369 C-1.26285327 366.73714673 -1.75766542 365.25108346 -2.77734375 362.2421875 C-3.11983154 361.24179443 -3.46231934 360.24140137 -3.81518555 359.21069336 C-4.3707312 357.55952515 -4.3707312 357.55952515 -4.9375 355.875 C-5.75520193 353.4778624 -6.57291055 351.08072708 -7.390625 348.68359375 C-7.82372323 347.40744209 -8.25666417 346.13123705 -8.68945312 344.85498047 C-10.39281229 339.83716035 -12.1224848 334.82844349 -13.84985352 329.81884766 C-22.58447645 304.4849452 -31.23308137 279.12109467 -39.8359375 253.7421875 C-40.46118317 251.89793182 -40.46118317 251.89793182 -41.09906006 250.01641846 C-43.15144826 243.96194746 -45.20266108 237.90708217 -47.25195312 231.8515625 C-48.01941952 229.58589965 -48.78699586 227.32027404 -49.5546875 225.0546875 C-49.92507141 223.96033386 -50.29545532 222.86598022 -50.67706299 221.73846436 C-52.52635639 216.28791003 -54.39846903 210.8467891 -56.31347656 205.41894531 C-56.68272247 204.37022247 -57.05196838 203.32149963 -57.43240356 202.24099731 C-58.12786281 200.27137479 -58.8275126 198.30322473 -59.53219604 196.33688354 C-62.20540377 188.76705771 -63.66938804 183.83087804 -60.96484375 175.98046875 C-60.73526474 175.30168671 -60.50568573 174.62290466 -60.26914978 173.92355347 C-59.50468797 171.67361578 -58.72117275 169.43081122 -57.9375 167.1875 C-57.39150049 165.59279069 -56.8467673 163.99764731 -56.30322266 162.40209961 C-55.14716572 159.01581407 -53.98315713 155.63241102 -52.81298828 152.25097656 C-51.00200962 147.0144911 -49.21541035 141.76990598 -47.43359375 136.5234375 C-41.94169375 120.36499996 -36.3970029 104.2248534 -30.82324219 88.09448242 C-27.53662802 78.57594216 -24.27875889 69.04772761 -21.02670288 59.51733398 C-20.13179603 56.89491497 -19.23648627 54.27263384 -18.34106445 51.65039062 C-15.67029111 43.82821639 -13.00112658 36.00551142 -10.33953857 28.1802063 C-9.22228386 24.89707588 -8.10270777 21.61474026 -6.98260498 18.33258057 C-6.45504491 16.78489015 -5.92854516 15.23683787 -5.40313721 13.68841553 C-4.68157183 11.56219363 -3.95645734 9.4372149 -3.23046875 7.3125 C-2.82207764 6.11238281 -2.41368652 4.91226563 -1.99291992 3.67578125 C-1 1 -1 1 0 0 Z " fill="#FDFDFD" transform="translate(640,190)"/>
<path d="M0 0 C4.18237719 1.30434905 7.99897482 2.8863888 11.90234375 4.87109375 C13.02688965 5.43916748 14.15143555 6.00724121 15.31005859 6.5925293 C15.90034851 6.89283051 16.49063843 7.19313171 17.09881592 7.50253296 C20.26031006 9.11014617 23.42887663 10.70368191 26.59765625 12.296875 C27.55387878 12.77793953 27.55387878 12.77793953 28.52941895 13.26872253 C33.94244371 15.98538064 39.39830127 18.60234322 44.875 21.1875 C56.1764288 26.53466574 67.33919026 32.15191829 78.51196289 37.7611084 C88.97788584 43.01350615 99.46722629 48.19698607 110.05322266 53.2043457 C117.9053627 56.92665306 125.66843955 60.81747915 133.42944336 64.72558594 C138.54159204 67.29320533 143.66559882 69.81657985 148.85620117 72.22192383 C150.89800984 73.16917935 152.92976433 74.13565613 154.9609375 75.10546875 C157.79218816 76.45431274 160.65148981 77.7027011 163.5390625 78.92578125 C165.0477351 79.61530871 166.5555733 80.30666525 168.0625 81 C168.74111084 81.26449951 169.41972168 81.52899902 170.11889648 81.80151367 C177.39373031 85.28858701 179.85878846 92.89542274 183.00869751 99.84539795 C184.54899406 103.19324197 186.22374617 106.4698153 187.89453125 109.75390625 C188.54144877 111.0404308 189.18752034 112.32738106 189.83276367 113.61474609 C190.15586517 114.25885437 190.47896667 114.90296265 190.81185913 115.56658936 C196.31088957 126.53513334 201.73451074 137.53029534 206.98754883 148.61938477 C210.92792442 156.91355483 215.04346331 165.11567065 219.16918945 173.31884766 C222.65173952 180.2592306 226.04963267 187.23307906 229.375 194.25 C233.63087353 203.2276267 238.03927921 212.12307742 242.5 221 C247.21259817 230.38486793 251.88627437 239.78538223 256.4375 249.25 C256.90414063 250.21421875 257.37078125 251.1784375 257.8515625 252.171875 C258.47998047 253.48671875 258.47998047 253.48671875 259.12109375 254.828125 C259.4864624 255.5902832 259.85183105 256.35244141 260.22827148 257.13769531 C261 259 261 259 261 261 C256.35464076 259.57938588 252.09985501 257.67553596 247.78515625 255.47265625 C246.76022316 254.95601662 246.76022316 254.95601662 245.71458435 254.42893982 C244.25387489 253.69239866 242.79402205 252.95415658 241.33496094 252.21435547 C237.4792469 250.25998731 233.6167107 248.31921362 229.75390625 246.37890625 C228.60717941 245.80258957 228.60717941 245.80258957 227.43728638 245.21463013 C221.49370523 242.23347749 215.51313716 239.3383709 209.5 236.5 C199.17448085 231.61865567 188.97158654 226.50408971 178.76623535 221.37799072 C169.07822835 216.51376507 159.35811065 211.73819895 149.55859375 207.1015625 C140.35734357 202.73129775 131.26085514 198.15488797 122.16723633 193.56616211 C116.19939095 190.56055341 110.22046641 187.60878965 104.15234375 184.80859375 C103.09853516 184.32003906 102.04472656 183.83148438 100.95898438 183.328125 C99.00928769 182.43078561 97.05387269 181.54572015 95.09179688 180.67578125 C85.34474715 176.18271744 82.15632799 169.88132425 77.8125 160.4375 C77.3383667 159.42679443 76.8642334 158.41608887 76.37573242 157.37475586 C75.39295997 155.27973121 74.41356793 153.1831176 73.4375 151.08496094 C71.25397521 146.3989862 69.03518105 141.73000055 66.8125 137.0625 C66.18807007 135.74958984 66.18807007 135.74958984 65.55102539 134.41015625 C62.20014709 127.38106449 58.74520542 120.40952941 55.23876953 113.45703125 C52.54826953 108.12057243 49.86529154 102.78034612 47.1875 97.4375 C46.88231445 96.8286496 46.57712891 96.21979919 46.26269531 95.59249878 C42.34339745 87.76642188 38.4946689 79.91144568 34.75 72 C29.9609215 61.8829349 24.9597774 51.87756016 19.9375 41.875 C14.86240137 31.76445705 9.79923672 21.65292942 4.9375 11.4375 C4.53845459 10.60009277 4.13940918 9.76268555 3.72827148 8.89990234 C2.34038062 5.96035767 1.02896401 3.08689203 0 0 Z " fill="#FDFDFD" transform="translate(374,300)"/>
<path d="M0 0 C4.52763323 1.38994211 8.67322893 3.21765811 12.875 5.375 C14.2980845 6.09523504 15.721268 6.81527451 17.14453125 7.53515625 C17.91877441 7.92848145 18.69301758 8.32180664 19.49072266 8.72705078 C33.03076339 15.59587471 46.6242564 22.33834498 60.34057617 28.84814453 C68.42443513 32.69615265 76.42657461 36.69743713 84.42382812 40.72167969 C90.92651102 43.9858301 97.46820755 47.14266295 104.06542969 50.21044922 C109.27999779 52.64130999 114.42429151 55.19415971 119.55834961 57.79003906 C125.51512958 60.78834533 131.53675511 63.64340855 137.5625 66.5 C144.79440388 69.93460884 151.98284483 73.40982192 158.97705078 77.31054688 C161.71194747 78.83001989 164.37107762 80.14201193 167.296875 81.26171875 C173.93988229 83.88091441 176.93582115 86.78372731 179.859375 93.24609375 C180.54826304 94.69472882 181.23764756 96.14312788 181.92749023 97.59130859 C182.44374466 98.69511871 182.44374466 98.69511871 182.97042847 99.82122803 C184.54986247 103.16361506 186.22324419 106.45677626 187.89453125 109.75390625 C188.5410747 111.04021151 189.18698456 112.32683542 189.83227539 113.61376953 C190.15535675 114.25783752 190.47843811 114.90190552 190.81130981 115.56549072 C196.26360556 126.44083224 201.6412477 137.34199738 206.84692383 148.33813477 C210.62151778 156.28099198 214.55087413 164.14307719 218.5 172 C222.89887503 180.75171437 227.24610335 189.52136172 231.4375 198.375 C236.83807098 209.77552 242.48078419 221.05129907 248.1408844 232.32446289 C248.78068298 233.59906027 249.41988002 234.87395979 250.05845642 236.14916992 C251.77937578 239.58306489 253.51482999 243.00874856 255.26806641 246.42626953 C255.82473747 247.51924095 255.82473747 247.51924095 256.39265442 248.6342926 C257.1079054 250.03842702 257.82782691 251.44019485 258.55302429 252.83921814 C260.0333622 255.75672314 261 257.68070908 261 261 C256.81762281 259.69565095 253.00102518 258.1136112 249.09765625 256.12890625 C247.40914551 255.27594971 247.40914551 255.27594971 245.68652344 254.40576172 C245.09609253 254.10539001 244.50566162 253.80501831 243.89733887 253.49554443 C240.75531127 251.89777396 237.606303 250.31390147 234.45703125 248.73046875 C233.5051442 248.25157196 233.5051442 248.25157196 232.5340271 247.76300049 C226.80910324 244.8898191 221.03877838 242.11715975 215.25 239.375 C201.99932575 233.08835308 188.90531857 226.49433954 175.8125 219.88671875 C161.74552385 212.80084979 147.51972612 206.03880403 133.2890625 199.2890625 C113.86455359 190.07527599 113.86455359 190.07527599 107.74829102 186.85351562 C104.52285643 185.16703537 101.4357124 183.77048451 97.94921875 182.7109375 C88.75436096 179.60823647 84.69511013 174.88356788 80.30859375 166.25219727 C77.89427363 161.31283589 75.64514113 156.30379441 73.44238281 151.26708984 C71.72254178 147.37153928 69.83269222 143.59189051 67.875 139.8125 C61.46258444 127.06899201 55.36850215 114.15871531 49.2890625 101.25390625 C45.4061844 93.02131969 41.47193761 84.86720217 37.10839844 76.87817383 C33.50859571 70.21961549 30.30681437 63.3727888 27.06445312 56.53515625 C24.45479349 51.03429694 21.81074627 45.55789914 19.0625 40.125 C15.51815918 33.10384747 12.09487502 26.02602503 8.6875 18.9375 C8.17131104 17.86580566 7.65512207 16.79411133 7.12329102 15.68994141 C4.63568784 10.50229399 2.20810149 5.3130087 0 0 Z " fill="#FDFDFD" transform="translate(645,571)"/>
<path d="M0 0 C0.70421082 0.23481583 1.40842163 0.46963165 2.13397217 0.71156311 C4.43521044 1.48116244 6.73324866 2.25985617 9.03125 3.0390625 C10.65584299 3.58495936 12.28051871 4.1306101 13.90527344 4.67602539 C25.15113939 8.46345543 36.32969899 12.42014058 47.49511719 16.43798828 C59.97555589 20.90456578 72.58581241 24.96501605 85.21582031 28.98608398 C94.13545813 31.83708967 102.94828189 34.8766378 111.71916199 38.15760803 C118.77672681 40.78678698 125.90277277 43.11027216 133.09375 45.3515625 C140.26131119 47.5901872 147.31979486 49.88934963 154.2644043 52.7512207 C157.67885335 54.12619378 161.15636234 55.27838467 164.65625 56.4140625 C165.3265625 56.63449219 165.996875 56.85492187 166.6875 57.08203125 C168.30114809 57.61222991 169.91605779 58.13858663 171.53125 58.6640625 C171.53125 59.3240625 171.53125 59.9840625 171.53125 60.6640625 C159.7260706 64.77122237 147.91424806 68.85810462 136.08203125 72.88671875 C134.85048309 73.306082 134.85048309 73.306082 133.59405518 73.73391724 C131.89650741 74.31191789 130.19895691 74.88991053 128.50140381 75.46789551 C127.64500305 75.75950562 126.78860229 76.05111572 125.90625 76.3515625 C125.0417926 76.64591187 124.17733521 76.94026123 123.28668213 77.24353027 C109.98976029 81.77384171 96.72164495 86.38165212 83.46875 91.0390625 C72.32025421 94.95601569 61.16656166 98.83988242 49.94287109 102.53735352 C37.82177707 106.53771808 25.75423579 110.69683326 13.67797852 114.83007812 C12.81257446 115.12617477 11.94717041 115.42227142 11.05554199 115.7273407 C9.43334248 116.28247478 7.81126248 116.83795827 6.18933105 117.39387512 C4.71016268 117.90020846 3.23054161 118.40522164 1.75042725 118.90878296 C0.19223573 119.4391012 -1.3647521 119.97296299 -2.9208374 120.50942993 C-4.1176413 120.91746353 -4.1176413 120.91746353 -5.33862305 121.33374023 C-6.05688766 121.5802684 -6.77515228 121.82679657 -7.5151825 122.08079529 C-13.25613346 123.79484328 -17.7577698 122.05336426 -23.09375 119.9140625 C-32.46157442 116.31505483 -41.94231155 113.12289412 -51.46875 109.9765625 C-63.72288287 105.92206872 -75.9532855 101.80760476 -88.15625 97.6015625 C-99.4874153 93.69643763 -110.84002848 89.86576823 -122.21875 86.1015625 C-133.61934542 82.32933776 -144.95513066 78.40251157 -156.25991821 74.3526001 C-169.59428908 69.57739443 -183.0106376 65.07842922 -196.46875 60.6640625 C-196.46875 60.0040625 -196.46875 59.3440625 -196.46875 58.6640625 C-195.41598877 58.32673096 -194.36322754 57.98939941 -193.27856445 57.6418457 C-189.30941093 56.36892173 -185.34186959 55.091033 -181.37475586 53.81176758 C-179.66945115 53.26259621 -177.96373289 52.71470711 -176.25756836 52.16821289 C-167.24314082 49.2798897 -158.32190566 46.30592088 -149.51196289 42.83276367 C-144.08451553 40.7484323 -138.55519108 38.97319863 -133.03125 37.1640625 C-130.3754798 36.28763283 -127.72081803 35.40787816 -125.06640625 34.52734375 C-124.37427032 34.29787552 -123.6821344 34.06840729 -122.96902466 33.83198547 C-114.61771129 31.05767537 -106.29299494 28.20585708 -97.96875 25.3515625 C-96.78123642 24.94448059 -96.78123642 24.94448059 -95.56973267 24.5291748 C-92.33071046 23.41869973 -89.09178909 22.30793164 -85.85307312 21.19656372 C-80.0753594 19.21407022 -74.29594179 17.23660855 -68.515625 15.26171875 C-67.69969376 14.98278275 -66.88376251 14.70384674 -66.04310608 14.41645813 C-62.01127467 13.03823707 -57.97882023 11.66189736 -53.94506836 10.28930664 C-46.79277675 7.85225883 -39.65469891 5.38746569 -32.55078125 2.8125 C-31.35356445 2.38291992 -30.15634766 1.95333984 -28.92285156 1.51074219 C-26.74164125 0.72505428 -24.56475761 -0.07280813 -22.39355469 -0.88574219 C-20.96317871 -1.39862793 -20.96317871 -1.39862793 -19.50390625 -1.921875 C-18.6931665 -2.2214209 -17.88242676 -2.5209668 -17.04711914 -2.82958984 C-11.16401677 -3.98493066 -5.53610844 -1.88578017 0 0 Z " fill="#FDFDFD" transform="translate(460.46875,506.3359375)"/>
<path d="M0 0 C0.33 0.66 0.66 1.32 1 2 C-0.06685842 4.60787613 -1.19937068 7.09912598 -2.4375 9.625 C-2.91606445 10.62660156 -2.91606445 10.62660156 -3.40429688 11.6484375 C-8.16297111 21.54503515 -13.15665367 31.33091543 -18.08502197 41.14382935 C-25.20642238 55.32470311 -32.31059062 69.50557571 -39.10205078 83.84838867 C-42.86017069 91.76651664 -46.78330725 99.59719732 -50.72290039 107.42626953 C-53.98665046 113.92813394 -57.14304719 120.46903386 -60.21044922 127.06542969 C-62.63807992 132.2730688 -65.18132301 137.41391509 -67.78344727 142.53637695 C-69.85532256 146.63837817 -71.83818685 150.77302165 -73.7734375 154.94140625 C-74.25578857 155.97378418 -74.73813965 157.00616211 -75.23510742 158.06982422 C-76.1844307 160.10762188 -77.1250858 162.14948613 -78.0559082 164.19580078 C-78.49507568 165.13536621 -78.93424316 166.07493164 -79.38671875 167.04296875 C-79.77045654 167.87852295 -80.15419434 168.71407715 -80.54956055 169.57495117 C-84.2058582 175.68806422 -89.23893489 178.47143403 -95.4296875 181.4765625 C-96.24829254 181.88369476 -97.06689758 182.29082703 -97.91030884 182.71029663 C-100.56044758 184.02508371 -103.21746359 185.32524003 -105.875 186.625 C-107.70804606 187.53051399 -109.54072715 188.43676717 -111.37304688 189.34375 C-121.59831545 194.3952635 -131.85421813 199.38244491 -142.16357422 204.26025391 C-149.85190654 207.90149169 -157.45095584 211.71091166 -165.04980469 215.53466797 C-171.57988553 218.81234318 -178.14619925 221.99888425 -184.75 225.125 C-194.90732019 229.93787449 -204.95564837 234.95719364 -215 240 C-225.46887489 245.25280819 -235.94194494 250.49049316 -246.5 255.5625 C-247.42425781 256.00916016 -248.34851563 256.45582031 -249.30078125 256.91601562 C-250.55955078 257.51639648 -250.55955078 257.51639648 -251.84375 258.12890625 C-252.55724609 258.46994385 -253.27074219 258.81098145 -254.00585938 259.16235352 C-255.98690557 259.99449964 -257.90437915 260.53871645 -260 261 C-251.44745163 242.47951673 -242.60086079 224.10361666 -233.4309082 205.88110352 C-230.03921631 199.12481788 -226.74220484 192.32916373 -223.5 185.5 C-217.16789617 172.16774738 -210.53633579 158.98853298 -203.88671875 145.8125 C-196.72545784 131.59585459 -189.88747815 117.21990804 -183.078125 102.83203125 C-182.62163574 101.86869873 -182.16514648 100.90536621 -181.69482422 99.9128418 C-180.83485604 98.09634593 -179.97700198 96.27884721 -179.12158203 94.46020508 C-178.73856934 93.65091553 -178.35555664 92.84162598 -177.9609375 92.0078125 C-177.46279541 90.95037842 -177.46279541 90.95037842 -176.95458984 89.87158203 C-174.99886823 86.03716723 -173.44995853 84.48857058 -169.6171875 82.72265625 C-168.7096875 82.29791016 -167.8021875 81.87316406 -166.8671875 81.43554688 C-165.87976563 80.98244141 -164.89234375 80.52933594 -163.875 80.0625 C-161.76731205 79.07617618 -159.66056926 78.08783058 -157.5546875 77.09765625 C-156.46768555 76.58734863 -155.38068359 76.07704102 -154.26074219 75.55126953 C-149.13430357 73.11241127 -144.06774765 70.55802579 -139 68 C-130.26573735 63.60315549 -121.4781049 59.33775978 -112.64453125 55.14453125 C-104.70791282 51.36570474 -96.84983304 47.44069347 -88.99804688 43.48925781 C-81.07803377 39.51377241 -73.09926866 35.67277406 -65.09521484 31.86987305 C-58.92932984 28.93630308 -52.80828547 25.92793875 -46.71508789 22.84667969 C-41.99759442 20.47118265 -37.22853769 18.22282995 -32.4375 16 C-26.21895135 13.11246135 -20.15801782 10.00910625 -14.13427734 6.73632812 C-9.5120614 4.23592941 -4.8414529 2.03850649 0 0 Z " fill="#FDFDFD" transform="translate(634,571)"/>
<path d="M0 0 C1 3 1 3 -0.32495117 6.14038086 C-0.99198683 7.44110942 -1.66966758 8.73641071 -2.35546875 10.02734375 C-3.10493412 11.48016201 -3.85410899 12.93313015 -4.60302734 14.38623047 C-4.99810486 15.14458191 -5.39318237 15.90293335 -5.80023193 16.68426514 C-7.75584068 20.45888749 -9.65064149 24.26364814 -11.55078125 28.06640625 C-12.33338685 29.62688598 -13.11618562 31.18726885 -13.89916992 32.74755859 C-20.35046093 45.61585591 -26.7785612 58.48658497 -32.92895508 71.50219727 C-37.16709173 80.43543668 -41.61421246 89.2613919 -46.05310059 98.09594727 C-50.26568338 106.48380296 -54.42389258 114.88950811 -58.4375 123.375 C-65.14570181 137.55405605 -72.22949021 151.54844808 -79.2734375 165.56274414 C-80.38940293 167.78441797 -81.46292412 170.02815317 -82.48364258 172.29516602 C-84.08872722 175.15826902 -85.00073328 176.06033293 -87.88671875 177.4921875 C-88.65129395 177.8826123 -89.41586914 178.27303711 -90.20361328 178.67529297 C-91.0232959 179.07119629 -91.84297852 179.46709961 -92.6875 179.875 C-93.54327637 180.30570801 -94.39905273 180.73641602 -95.28076172 181.18017578 C-97.02855706 182.05748141 -98.78019617 182.92717229 -100.53564453 183.7890625 C-102.67797828 184.84176464 -104.80834829 185.91335852 -106.93359375 187 C-115.81363591 191.52401671 -124.81742967 195.7900172 -133.81054688 200.08325195 C-142.29697884 204.14914139 -150.71770532 208.33641754 -159.125 212.5625 C-168.92016706 217.48615597 -178.75395784 222.31171411 -188.66064453 227.00805664 C-196.49610398 230.73235235 -204.24977449 234.60941924 -211.99902344 238.50927734 C-219.95529464 242.50298803 -227.96764363 246.36878434 -236.01245117 250.18066406 C-240.19434099 252.16524009 -244.36210519 254.16356776 -248.48046875 256.27734375 C-249.46732666 256.78334106 -249.46732666 256.78334106 -250.47412109 257.29956055 C-252.17029336 258.17647936 -253.86081176 259.06431113 -255.55078125 259.953125 C-256.35902344 260.29859375 -257.16726563 260.6440625 -258 261 C-258.66 260.67 -259.32 260.34 -260 260 C-259.72438232 259.45400146 -259.44876465 258.90800293 -259.16479492 258.34545898 C-253.92216064 247.94556831 -248.73962911 237.52390412 -243.75 227 C-239.45114502 217.93976986 -235.00349153 208.95959571 -230.5 200 C-226.08017938 191.2067263 -221.71275984 182.39501399 -217.5 173.5 C-212.97722694 163.95040989 -208.26956884 154.49951387 -203.52450562 145.05926514 C-199.83402603 137.71356496 -196.17372138 130.35714423 -192.64746094 122.93066406 C-191.76281703 121.07142343 -190.86902605 119.2165055 -189.96582031 117.36621094 C-187.60612176 112.51409155 -185.44273608 107.65379118 -183.46484375 102.6328125 C-178.86509699 91.48632727 -174.85432427 83.86781831 -163.5 78.875 C-160.44644615 77.63565784 -157.37718341 76.45807501 -154.2890625 75.30761719 C-148.95164858 73.18564651 -143.88915923 70.54267088 -138.78570557 67.91610718 C-129.80768 63.31017784 -120.74352812 58.88248354 -111.625 54.5625 C-102.68869696 50.32818385 -93.83486179 45.94072212 -85 41.5 C-75.30795692 36.62844669 -65.57937464 31.85195261 -55.77490234 27.2097168 C-47.01261552 23.04382521 -38.34738019 18.69140221 -29.67913818 14.33444214 C-19.85748829 9.39991073 -9.99039211 4.58503333 0 0 Z " fill="#FDFDFD" transform="translate(905,300)"/>
<path d="M0 0 C6.66323361 2.40704648 13.35442833 4.72450971 20.0586853 7.0151062 C29.81824681 10.34993498 39.56790652 13.71024225 49.29296875 17.14453125 C66.66476932 23.27486804 84.06255514 29.24966991 101.60641479 34.87078857 C111.25174362 37.96295676 120.82160166 41.16748299 130.31152344 44.71435547 C143.94182128 49.7734862 157.80997368 54.1903777 171.6171875 58.73828125 C171.6171875 59.39828125 171.6171875 60.05828125 171.6171875 60.73828125 C170.81081848 61.01111435 170.81081848 61.01111435 169.98815918 61.28945923 C146.87201512 69.11261504 123.75964779 76.94107133 100.7421875 85.05078125 C87.67806777 89.65310627 74.57741829 94.12026102 61.42449951 98.46209717 C47.35829369 103.1084679 33.37575408 107.98059712 19.4140625 112.93164062 C15.56110451 114.29590708 11.70263144 115.64302571 7.83764648 116.97283936 C6.35067346 117.48543223 4.8651604 118.00227897 3.38110352 118.52325439 C1.2413193 119.26990678 -0.90501795 119.99331836 -3.0546875 120.7109375 C-4.27768555 121.12738525 -5.50068359 121.54383301 -6.76074219 121.97290039 C-13.23371979 123.3407074 -18.6525206 121.87014517 -24.828125 119.69140625 C-26.04967285 119.26553223 -27.2712207 118.8396582 -28.52978516 118.40087891 C-29.85579663 117.93001966 -31.18180567 117.45915356 -32.5078125 116.98828125 C-33.91813941 116.49437208 -35.32879264 116.00139381 -36.73974609 115.50927734 C-39.74022986 114.462387 -42.73954807 113.41224488 -45.73828125 112.36035156 C-52.69041257 109.92681306 -59.66255429 107.55176679 -66.63372803 105.17346191 C-70.64713023 103.80384727 -74.65941093 102.43095377 -78.671875 101.05859375 C-80.29328852 100.50421496 -81.91470779 99.94985298 -83.53613281 99.39550781 C-89.90702582 97.21723043 -96.27750028 95.03772995 -102.64794922 92.8581543 C-105.80314141 91.77865228 -108.95841992 90.69940313 -112.11376953 89.62036133 C-119.31436778 87.15778512 -126.51449589 84.69386956 -133.71258545 82.22396851 C-137.76905316 80.8321047 -141.82585451 79.44121532 -145.8828125 78.05078125 C-146.66748901 77.7818103 -147.45216553 77.51283936 -148.26062012 77.23571777 C-160.64221727 72.99388025 -173.04583514 68.82155464 -185.47460938 64.7199707 C-186.62509766 64.33929443 -187.77558594 63.95861816 -188.9609375 63.56640625 C-190.46769043 63.06995605 -190.46769043 63.06995605 -192.00488281 62.56347656 C-194.3828125 61.73828125 -194.3828125 61.73828125 -196.3828125 60.73828125 C-196.3828125 60.07828125 -196.3828125 59.41828125 -196.3828125 58.73828125 C-195.81812256 58.55354248 -195.25343262 58.36880371 -194.67163086 58.1784668 C-182.92534001 54.32470913 -171.23166506 50.3537283 -159.59777832 46.17205811 C-145.43852437 41.0829942 -131.18268392 36.35376798 -116.84301758 31.79785156 C-110.04408546 29.63058659 -103.32179032 27.41253564 -96.72583008 24.67504883 C-92.10686952 22.82833093 -87.35929693 21.34562441 -82.6328125 19.80078125 C-70.92071508 15.93415169 -59.23991405 11.98119599 -47.5703125 7.98828125 C-46.36707336 7.57728683 -46.36707336 7.57728683 -45.13952637 7.1579895 C-42.79706358 6.35773706 -40.45507804 5.55610534 -38.11328125 4.75390625 C-37.36869659 4.49934158 -36.62411194 4.24477692 -35.85696411 3.98249817 C-32.32262946 2.76912547 -28.79954946 1.53362679 -25.29345703 0.24072266 C-24.65539627 0.0066571 -24.01733551 -0.22740845 -23.35993958 -0.46856689 C-21.6528643 -1.09823222 -19.94897688 -1.73652156 -18.24536133 -2.37548828 C-11.51612118 -4.4588266 -6.41638164 -2.33386052 0 0 Z " fill="#FDFDFD" transform="translate(844.3828125,506.26171875)"/>
</svg>
